<svg fill="none" height="80" viewBox="0 0 92 80" width="92" xmlns="http://www.w3.org/2000/svg" xmlns:xlink="http://www.w3.org/1999/xlink"><clipPath id="a"><path d="m.285645 0h91.4286v80h-91.4286z"/></clipPath><g clip-path="url(#a)"><path d="m1.28564 1h89.4286v78h-89.4286z" fill="#b4b4b4" stroke="#000" stroke-width="2"/><path d="m1.78564 1.5h88v77h-88z" stroke="#6d6d6d"/><path d="m.285645 0h90v1h-90z" fill="#fff"/><path d="m.285645 0h1v79h-1z" fill="#fff"/><g fill="#d8d8d8"><path d="m1.28564 1h88v1h-88z"/><path d="m1.28564 1h1v77h-1z"/></g></g><path clip-rule="evenodd" d="m23.1427 17.1428h11.4286v5.7143h-11.4286zm5.714 5.7143h11.4286v5.7143h-11.4286zm5.7142 5.7144h11.4286v5.7142h-11.4286zm5.7146 5.7141h11.4286v5.7143h-11.4286zm5.7142-5.7141h11.4285v5.7142h-11.4285zm5.7141-5.7144h11.4286v5.7143h-11.4286zm-22.8571 22.8571h11.4286v5.7142h-11.4286zm22.8571 0h11.4286v5.7142h-11.4286zm5.7146 5.7146h11.4286v5.7143h-11.4286zm-34.2858 0h11.4285v5.7143h-11.4285zm34.2858-34.2859h11.4286v5.7143h-11.4286zm-22.8575 22.8571h11.4286v5.7143h-11.4286zm11.4288 0h11.4285v5.7143h-11.4285z" fill="#000" fill-rule="evenodd"/></svg>