<svg fill="none" height="80" viewBox="0 0 80 80" width="80" xmlns="http://www.w3.org/2000/svg"><g clip-rule="evenodd" fill-rule="evenodd"><path d="m10 5h49.5v5h5.5v60h-55z" fill="#fff"/><path d="m55 15h20v5 55 5h-5-60v-5h60v-55h-15z" fill="#000"/><path d="m55 5h5v10h-5zm10 15h5v55h-5-55v-5h55z" fill="#c0c0c0"/><path d="m25 5h5v5h-5zm20 0h5v5h-5zm-5 5h-5v5h5zm-5 10h5v5h-5zm25 0h-5v5h5zm-15-5h5v5h-5zm5 10h-5v5h5zm-35-15h5v5h-5zm5 10h-5v5h5zm5-5h5v5h-5zm5 10h-5v5h5zm5 5h5v5h-5zm25 0h-5v5h5zm-15 5h5v5h-5zm-25-5h-5v5h5zm5 5h5v5h-5zm15 5h-5v5h5zm15 0h5v5h-5zm-5 5h-5v5h5zm-35-5h5v5h-5zm15 5h-5v5h5zm5 5h5v5h-5zm25 0h-5v5h5zm-15 5h5v5h-5zm-25-5h-5v5h5zm5 5h5v5h-5zm15 5h-5v5h5zm15 0h5v5h-5zm-5 5h-5v5h5zm-35-5h5v5h-5zm15 5h-5v5h5z" fill="#fffb01"/><path d="m50 20h-25v5h-5v5 5 5 5 5 5h5v5h25v-5h5v-5-5-5-5-5-5h-5z" fill="#c0c0c0"/></g><path d="m30 20h15v5h-15z" fill="#008080"/><path d="m45 25h5v5h-5z" fill="#008080"/><path d="m45 30h5v5h-5z" fill="#018000"/><path d="m35 25h5v5h-5z" fill="#008080"/><path d="m35 30h5v5h-5z" fill="#0433ff"/><path d="m25 25h5v5h-5z" fill="#008080"/><path d="m25 30h5v5h-5z" fill="#c0c0c0"/><path d="m20 30h5v5h-5z" fill="#008080"/><path d="m30 25h5v5h-5z" fill="#808080"/><path d="m30 30h5v5h-5z" fill="#008080"/><path d="m40 25h5v5h-5z" fill="#018000"/><path d="m40 30h5v5h-5z" fill="#008080"/><path d="m50 30h5v5h-5z" fill="#808080"/><path d="m45 35h5v5h-5z" fill="#0433ff"/><path d="m35 35h5v5h-5z" fill="#018000"/><path d="m25 35h5v5h-5z" fill="#fff"/><path d="m20 35h5v5h-5z" fill="#008080"/><path d="m30 35h5v5h-5z" fill="#c0c0c0"/><path d="m40 35h5v5h-5z" fill="#011480"/><path d="m50 35h5v5h-5z" fill="#011480"/><path d="m45 40h5v5h-5z" fill="#0433ff"/><path d="m35 40h5v5h-5z" fill="#018000"/><path d="m25 40h5v5h-5z" fill="#c0c0c0"/><path d="m20 40h5v5h-5z" fill="#008080"/><path d="m30 40h5v5h-5z" fill="#808080"/><path d="m40 40h5v5h-5z" fill="#018000"/><path d="m50 40h5v5h-5z" fill="#011480"/><path d="m45 45h5v5h-5z" fill="#011480"/><path d="m35 45h5v5h-5z" fill="#018000"/><path d="m25 45h5v5h-5z" fill="#0433ff"/><path d="m20 45h5v5h-5z" fill="#808080"/><path d="m30 45h5v5h-5z" fill="#0433ff"/><path d="m40 45h5v5h-5z" fill="#0433ff"/><path d="m50 45h5v5h-5z" fill="#011480"/><path d="m35 50h5v5h-5z" fill="#011480"/><path d="m25 50h5v5h-5z" fill="#011480"/><path d="m30 50h5v5h-5z" fill="#0433ff"/><path d="m40 50h5v5h-5z" fill="#011480"/><path d="m45 50h5v5h-5z" fill="#000"/><path d="m35 55h5v5h-5z" fill="#000"/><path d="m30 55h5v5h-5z" fill="#000"/><path d="m40 55h5v5h-5z" fill="#000"/></svg>